<svg xmlns="http://www.w3.org/2000/svg" width="1254" height="836" viewBox="0 0 1254 836">
<g>
<path d="M 700.51 526.67 C695.76,524.08 693.58,520.25 694.89,516.80 C697.81,509.12 708.53,510.01 710.51,518.09 C710.98,520.02 710.48,521.46 708.57,523.74 C705.48,527.41 705.34,528.35 708.00,527.50 C709.15,527.14 710.00,527.32 710.00,527.93 C710.00,529.69 704.78,528.99 700.51,526.67 ZM 576.70 524.84 C572.87,521.42 572.34,517.87 575.18,514.64 C578.54,510.81 583.01,510.22 586.30,513.16 C590.13,516.58 590.66,520.13 587.82,523.36 C584.46,527.19 579.99,527.78 576.70,524.84 ZM 903.72 523.90 C900.98,520.40 898.00,520.43 898.00,523.97 C898.00,525.09 897.55,526.00 897.00,526.00 C896.43,526.00 896.00,522.99 896.00,518.97 C896.00,511.09 896.65,510.34 902.50,511.43 C907.32,512.34 908.84,515.37 906.24,518.89 C904.46,521.29 904.42,521.75 905.78,523.80 C908.15,527.36 906.50,527.45 903.72,523.90 ZM 586.00 523.00 C588.31,520.69 588.44,519.70 586.85,516.68 C585.41,513.95 584.06,513.03 581.44,513.02 C576.29,512.98 573.37,519.37 576.91,522.91 C579.55,525.55 583.41,525.59 586.00,523.00 ZM 705.49 524.36 C709.61,522.79 709.08,514.80 704.78,513.43 C699.97,511.90 695.90,515.79 696.86,521.00 C697.45,524.19 701.66,525.83 705.49,524.36 ZM 749.75 526.43 C748.84,525.50 748.77,519.40 749.62,515.12 C750.21,512.19 750.52,512.00 754.65,512.00 C758.30,512.00 759.22,512.40 760.12,514.37 C761.76,517.97 759.87,520.61 755.10,521.37 C751.78,521.90 751.08,522.42 750.82,524.60 C750.64,526.02 750.16,526.85 749.75,526.43 ZM 768.00 519.20 C768.00,514.49 768.42,511.00 768.98,511.00 C769.52,511.00 771.11,513.25 772.50,516.00 C773.89,518.75 775.48,521.00 776.03,521.00 C776.58,521.00 778.01,518.97 779.21,516.50 C782.47,509.79 784.00,510.59 784.00,519.00 C784.00,527.12 782.25,528.52 781.80,520.75 L 781.50 515.50 L 779.05 520.25 C777.70,522.86 776.35,525.00 776.05,525.00 C775.75,525.00 774.37,522.87 773.00,520.27 L 770.50 515.54 L 770.19 520.52 C769.65,529.12 768.00,528.12 768.00,519.20 ZM 810.75 526.42 C809.66,525.32 809.83,512.22 810.95,511.53 C811.47,511.21 813.71,513.40 815.93,516.40 C821.52,523.97 822.00,524.06 822.00,517.56 C822.00,514.50 822.45,512.00 823.00,512.00 C824.27,512.00 824.33,525.68 823.06,526.46 C822.55,526.78 820.19,524.58 817.81,521.58 C815.44,518.57 813.18,516.09 812.80,516.06 C812.41,516.03 811.96,518.52 811.80,521.59 C811.63,524.67 811.16,526.84 810.75,526.42 ZM 630.67 526.33 C629.50,525.17 629.94,513.46 631.20,512.20 C632.62,510.78 639.63,510.59 640.46,511.94 C640.78,512.46 639.12,513.02 636.77,513.19 C633.27,513.44 632.50,513.86 632.50,515.50 C632.50,517.09 633.27,517.56 636.27,517.81 C640.89,518.19 640.21,520.00 635.44,520.00 C632.44,520.00 632.00,520.32 632.00,522.50 C632.00,524.80 632.37,525.00 636.50,525.00 C638.97,525.00 641.00,525.45 641.00,526.00 C641.00,527.10 631.73,527.40 630.67,526.33 ZM 677.67 526.33 C676.55,525.22 676.91,512.20 678.06,511.81 C678.65,511.62 681.01,511.67 683.31,511.94 L 687.50 512.41 L 683.50 512.96 C680.35,513.38 679.50,513.92 679.50,515.50 C679.50,517.09 680.27,517.56 683.25,517.81 C688.26,518.23 688.06,520.00 683.00,520.00 C679.40,520.00 679.00,520.25 679.00,522.50 C679.00,524.80 679.37,525.00 683.50,525.00 C685.97,525.00 688.00,525.45 688.00,526.00 C688.00,527.10 678.73,527.40 677.67,526.33 ZM 878.50 511.53 L 883.25 511.19 C886.19,510.98 888.00,511.26 888.00,511.92 C888.00,512.52 886.20,513.00 884.00,513.00 C880.40,513.00 880.00,513.25 880.00,515.50 C880.00,517.69 880.43,518.00 883.50,518.00 C885.42,518.00 887.00,518.45 887.00,519.00 C887.00,519.55 885.42,520.00 883.50,520.00 C880.43,520.00 880.00,520.31 880.00,522.50 C880.00,524.80 880.36,525.00 884.56,525.00 C887.34,525.00 888.88,525.39 888.50,526.00 C888.16,526.55 885.64,527.00 882.90,527.00 L 877.92 527.00 L 878.50 511.53 ZM 792.67 526.33 C792.30,525.97 792.00,522.59 792.00,518.83 L 792.00 512.00 L 797.25 512.14 C802.39,512.28 802.41,512.30 798.50,512.89 C795.37,513.37 794.50,513.93 794.50,515.50 C794.50,517.03 795.27,517.57 797.75,517.81 C802.11,518.23 801.91,520.00 797.50,520.00 C794.43,520.00 794.00,520.31 794.00,522.50 C794.00,524.80 794.36,525.00 798.56,525.00 C801.34,525.00 802.88,525.39 802.50,526.00 C801.81,527.11 793.72,527.38 792.67,526.33 ZM 861.25 526.34 C858.75,525.33 860.09,524.50 864.23,524.50 C867.36,524.50 868.54,524.07 868.78,522.85 C869.01,521.68 867.86,520.79 864.80,519.77 C861.33,518.62 860.44,517.83 860.18,515.67 C859.93,513.56 860.42,512.79 862.50,512.00 C865.19,510.98 870.00,511.60 870.00,512.97 C870.00,513.39 868.33,513.68 866.28,513.61 C860.88,513.45 860.69,516.18 865.96,518.25 C871.04,520.25 872.13,522.67 869.06,525.16 C866.86,526.94 863.86,527.39 861.25,526.34 ZM 720.22 525.44 C718.35,524.13 718.00,522.95 718.00,517.94 C718.00,514.65 718.45,512.00 719.00,512.00 C719.55,512.00 720.00,514.39 720.00,517.30 C720.00,523.07 721.17,525.00 724.66,525.00 C727.59,525.00 729.00,522.26 729.00,516.57 C729.00,514.05 729.45,512.00 730.00,512.00 C731.14,512.00 731.35,521.94 730.23,523.60 C729.29,525.01 725.52,527.00 723.79,527.00 C723.05,527.00 721.44,526.30 720.22,525.44 ZM 648.53 525.75 C648.31,525.06 648.21,521.80 648.31,518.50 L 648.50 512.50 L 653.50 512.36 C658.27,512.23 658.32,512.25 654.50,512.86 C651.38,513.36 650.50,513.94 650.50,515.50 C650.50,517.09 651.27,517.56 654.27,517.81 C658.89,518.19 658.21,520.00 653.44,520.00 C650.44,520.00 650.00,520.32 650.00,522.50 C650.00,524.80 650.37,525.00 654.50,525.00 C656.97,525.00 659.00,525.45 659.00,526.00 C659.00,527.50 649.02,527.26 648.53,525.75 ZM 964.67 526.33 C964.30,525.97 964.00,522.59 964.00,518.83 L 964.00 512.00 L 969.25 512.17 C974.27,512.34 974.31,512.37 970.25,512.73 C966.51,513.07 966.00,513.41 966.00,515.56 C966.00,517.68 966.46,518.00 969.50,518.00 C971.42,518.00 973.00,518.45 973.00,519.00 C973.00,519.55 971.42,520.00 969.50,520.00 C966.43,520.00 966.00,520.31 966.00,522.50 C966.00,524.80 966.36,525.00 970.56,525.00 C973.34,525.00 974.88,525.39 974.50,526.00 C973.81,527.11 965.72,527.38 964.67,526.33 ZM 945.92 524.08 C942.62,520.77 942.28,518.48 944.60,515.16 C946.60,512.31 950.39,510.81 953.57,511.61 C957.18,512.51 956.51,513.95 952.75,513.37 C948.41,512.69 945.90,514.69 945.78,518.93 C945.66,523.21 948.26,525.34 952.75,524.63 C956.09,524.11 957.23,525.31 954.42,526.39 C951.25,527.61 948.78,526.94 945.92,524.08 ZM 916.63 520.93 C915.18,517.60 914.00,514.20 914.00,513.38 C914.00,510.64 915.77,512.93 917.60,518.01 C918.59,520.77 919.82,522.89 920.34,522.72 C920.85,522.55 922.22,520.07 923.38,517.21 C925.42,512.21 927.84,509.76 926.47,514.10 C924.96,518.85 920.96,527.00 920.14,527.00 C919.66,527.00 918.08,524.27 916.63,520.93 ZM 558.32 525.81 C555.21,524.31 553.42,519.56 554.81,516.51 C556.48,512.84 560.38,510.71 563.96,511.49 C568.12,512.41 567.82,514.01 563.61,513.32 C561.01,512.90 559.73,513.27 558.11,514.89 C555.58,517.42 555.44,519.75 557.64,522.89 C559.01,524.85 559.89,525.14 563.14,524.71 C567.28,524.15 568.47,525.37 564.75,526.37 C561.82,527.15 560.94,527.08 558.32,525.81 ZM 835.62 525.46 C835.28,524.57 835.00,521.40 835.00,518.42 C835.00,513.27 834.87,513.00 832.44,513.00 C830.99,513.00 830.15,512.57 830.50,512.00 C831.28,510.74 841.68,510.68 842.46,511.93 C842.77,512.44 841.79,513.01 840.27,513.18 C837.58,513.49 837.50,513.68 837.46,519.71 C837.42,526.10 836.72,528.31 835.62,525.46 ZM 597.21 519.34 L 597.50 511.50 L 601.75 511.19 C604.26,511.01 606.00,511.32 606.00,511.94 C606.00,512.52 604.42,513.00 602.50,513.00 C599.46,513.00 599.00,513.32 599.00,515.44 C599.00,517.44 599.58,517.94 602.25,518.26 L 605.50 518.65 L 602.25 519.45 C599.54,520.12 599.00,520.72 599.00,523.07 C599.00,524.61 598.53,526.17 597.96,526.53 C597.26,526.96 597.01,524.59 597.21,519.34 ZM 904.43 518.43 C905.29,517.56 906.00,516.43 906.00,515.91 C906.00,514.50 901.37,512.65 899.56,513.34 C898.01,513.93 897.39,518.06 898.67,519.33 C899.85,520.51 902.81,520.05 904.43,518.43 ZM 614.09 519.25 C614.03,514.11 614.36,511.98 615.25,511.92 C615.94,511.87 617.77,511.75 619.32,511.63 C620.88,511.52 622.36,511.78 622.63,512.21 C622.90,512.65 621.52,513.00 619.56,513.00 C616.43,513.00 616.00,513.30 616.00,515.50 C616.00,517.61 616.47,518.00 619.00,518.00 C620.65,518.00 622.00,518.45 622.00,519.00 C622.00,519.55 620.66,520.00 619.03,520.00 C616.54,520.00 615.91,520.52 615.12,523.25 C614.31,526.05 614.17,525.49 614.09,519.25 ZM 758.07 518.42 C759.96,516.14 757.99,513.50 754.40,513.50 C751.45,513.50 750.23,515.55 751.38,518.56 C752.12,520.49 756.43,520.40 758.07,518.42 ZM 934.67 526.33 C933.59,525.25 933.89,512.00 935.00,512.00 C935.58,512.00 936.00,515.17 936.00,519.50 C936.00,527.03 935.90,527.56 934.67,526.33 ZM 739.00 519.50 C739.00,515.17 739.42,512.00 740.00,512.00 C740.58,512.00 741.00,515.17 741.00,519.50 C741.00,523.83 740.58,527.00 740.00,527.00 C739.42,527.00 739.00,523.83 739.00,519.50 Z" fill="rgba(0,0,0,1)"/>
<path d="M 306.00 502.41 C294.07,498.36 286.34,493.48 276.96,484.07 C270.58,477.66 267.40,473.49 264.34,467.50 C256.65,452.45 252.41,435.47 251.31,415.25 L 250.69 404.00 L 246.91 404.00 C241.78,404.00 238.13,405.52 234.16,409.31 C227.77,415.42 226.01,422.07 228.49,430.63 C230.60,437.88 236.98,444.47 243.60,446.24 C246.60,447.04 248.54,448.20 249.04,449.49 C250.17,452.41 254.00,464.54 254.00,465.20 C254.00,465.51 251.86,465.30 249.25,464.75 C234.41,461.60 220.38,450.49 214.23,437.00 C210.75,429.38 210.53,417.63 213.73,410.67 C217.40,402.72 221.52,398.36 228.78,394.78 L 235.46 391.50 L 425.50 391.50 L 425.80 397.25 C426.02,401.43 425.74,403.02 424.80,403.07 C424.08,403.11 389.08,403.12 347.00,403.09 C304.92,403.07 269.71,403.29 268.75,403.59 C267.30,404.04 267.00,405.35 267.01,411.32 C267.01,421.69 269.52,436.78 272.90,446.80 C280.33,468.86 293.08,482.76 310.75,488.04 C314.33,489.11 315.00,489.73 315.01,491.91 C315.01,493.33 315.30,496.86 315.65,499.75 C315.96,502.37 316.16,503.89 315.51,504.50 C314.61,505.35 312.09,504.47 306.00,502.41 ZM 321.43 529.95 C299.12,528.54 279.18,524.15 266.87,517.93 C260.17,514.55 252.61,508.08 250.42,503.85 C248.58,500.29 248.60,491.68 250.45,488.10 C251.95,485.20 258.41,479.00 259.94,479.00 C260.42,479.00 260.58,480.75 260.29,482.88 C258.47,496.46 272.52,506.52 301.50,512.39 C309.96,514.11 337.30,516.94 339.94,516.38 C340.80,516.20 347.26,515.59 354.31,515.02 C383.88,512.66 405.13,505.07 412.49,494.22 C414.38,491.45 415.00,489.24 415.00,485.33 C415.00,482.46 415.38,479.89 415.84,479.60 C417.14,478.80 423.72,486.07 425.45,490.22 C428.53,497.61 426.32,504.73 418.81,511.62 C404.00,525.22 364.44,532.66 321.43,529.95 ZM 327.52 504.90 C327.22,504.13 327.10,483.03 327.24,458.02 L 327.50 412.53 L 367.50 412.63 L 367.79 421.37 L 368.08 430.10 L 362.29 429.80 C356.80,429.52 356.48,429.36 356.18,426.75 C355.87,424.04 355.75,424.00 348.93,424.00 L 342.00 424.00 L 342.00 484.00 L 355.91 484.00 L 356.50 470.50 L 368.00 469.90 L 368.00 500.05 L 365.27 501.09 C359.97,503.10 348.56,505.05 338.37,505.67 C330.02,506.18 327.95,506.03 327.52,504.90 ZM 375.67 496.33 C374.81,495.48 374.93,472.93 375.82,467.00 L 376.50 462.50 L 388.50 462.50 L 388.81 466.75 C388.98,469.09 389.43,471.00 389.82,471.00 C391.49,471.00 401.00,453.87 401.00,450.87 C401.00,450.39 395.71,449.99 389.25,449.98 C382.79,449.98 376.99,449.64 376.38,449.23 C375.61,448.73 375.29,442.83 375.38,430.50 L 375.50 412.50 L 399.75 412.29 L 424.00 412.09 L 423.99 418.79 C423.96,429.91 423.90,430.00 415.88,430.00 L 409.00 430.00 L 409.00 422.93 L 399.25 423.21 L 389.50 423.50 L 389.50 437.50 L 405.25 437.78 C415.46,437.95 419.70,437.85 420.70,439.59 C421.47,440.95 420.28,443.44 418.40,448.06 C410.29,468.01 398.71,482.94 383.82,492.65 C378.18,496.33 376.98,497.11 376.25,496.80 C376.05,496.72 375.88,496.55 375.67,496.33 ZM 561.94 455.11 C556.01,453.17 549.58,448.50 550.59,446.85 C550.88,446.38 550.69,446.00 550.17,446.00 C549.64,446.00 548.49,444.19 547.61,441.98 C542.68,429.65 549.65,415.74 562.11,413.07 C571.75,411.00 581.56,413.93 586.45,420.34 C590.22,425.29 591.53,433.67 589.58,440.39 C587.68,446.93 584.98,450.46 579.92,453.04 C575.56,455.27 565.84,456.38 561.94,455.11 ZM 285.72 448.83 C284.05,448.22 282.15,446.26 280.95,443.90 C278.59,439.27 276.75,426.90 277.19,418.50 L 277.50 412.50 L 319.00 411.96 L 319.00 427.55 C319.00,436.80 318.56,443.95 317.92,445.15 C316.02,448.70 310.92,450.01 299.28,449.92 C293.35,449.88 287.25,449.39 285.72,448.83 ZM 534.13 455.03 C533.70,454.74 530.74,451.01 527.56,446.75 C522.26,439.68 521.45,439.00 518.28,439.00 L 514.79 439.00 L 515.15 446.14 C515.54,454.12 514.44,455.83 509.65,454.63 L 507.00 453.96 L 507.00 434.09 C507.00,416.89 507.21,414.13 508.58,413.61 C511.68,412.42 529.02,412.98 532.36,414.38 C542.07,418.43 542.58,430.42 533.27,435.74 L 529.83 437.70 L 536.42 445.59 C540.04,449.93 543.00,453.77 543.00,454.13 C543.00,454.96 535.18,455.75 534.13,455.03 ZM 661.65 455.53 C661.34,454.72 662.27,451.46 663.71,448.28 C665.15,445.10 666.45,442.05 666.58,441.50 C667.94,436.00 678.18,411.48 679.42,410.79 C680.30,410.29 682.91,410.02 685.22,410.19 L 689.41 410.50 L 698.21 433.00 C703.04,445.38 707.00,455.61 707.00,455.75 C707.00,455.89 705.02,456.00 702.59,456.00 C698.38,456.00 698.08,455.80 696.09,451.68 C694.94,449.31 694.00,446.67 694.00,445.81 C694.00,442.69 691.42,441.92 681.99,442.21 L 672.77 442.50 L 670.46 448.90 C669.19,452.41 667.55,455.67 666.82,456.13 C664.76,457.44 662.27,457.15 661.65,455.53 ZM 467.50 452.81 C467.19,451.54 467.06,442.17 467.22,432.00 L 467.50 413.50 L 477.85 413.21 C489.77,412.87 493.91,413.91 497.47,418.14 C502.01,423.54 500.14,432.29 493.73,435.67 C491.95,436.61 487.12,437.63 483.00,437.94 L 475.50 438.50 L 475.50 454.50 L 471.78 454.81 C468.61,455.07 467.98,454.78 467.50,452.81 ZM 629.00 457.68 C620.27,455.66 615.15,452.05 611.70,445.50 C608.68,439.78 608.71,427.18 611.75,421.38 C614.24,416.63 618.66,412.61 623.87,410.36 C628.81,408.22 644.41,407.42 650.88,408.97 C655.80,410.15 656.00,410.33 656.00,413.60 C656.00,415.47 655.89,417.00 655.75,416.99 C655.61,416.98 653.29,416.31 650.59,415.49 C647.89,414.67 642.81,414.00 639.30,414.00 C628.33,414.00 621.90,418.90 620.06,428.68 C616.79,446.01 631.14,457.11 649.59,451.51 C653.47,450.33 655.00,449.86 655.61,450.41 C656.01,450.77 656.00,451.59 656.00,452.96 C656.00,455.54 655.51,456.05 652.25,456.93 C645.79,458.67 634.80,459.02 629.00,457.68 ZM 575.12 448.27 C578.84,446.07 582.00,439.59 582.00,434.15 C582.00,421.34 570.53,413.81 560.90,420.29 C556.50,423.24 554.66,428.58 555.33,436.40 C556.11,445.46 560.42,449.95 568.35,449.99 C570.46,449.99 573.51,449.22 575.12,448.27 ZM 741.67 455.33 C741.30,454.97 741.00,445.31 741.00,433.88 L 741.00 413.09 L 744.53 412.43 C746.48,412.06 751.99,412.16 756.78,412.63 C763.48,413.30 765.50,413.85 765.50,415.00 C765.50,416.16 763.78,416.61 758.00,417.00 L 750.50 417.50 L 750.21 424.20 L 749.91 430.91 L 756.71 431.20 C762.88,431.47 763.53,431.70 763.82,433.75 C764.13,435.90 763.83,436.00 757.07,436.00 L 750.00 436.00 L 750.00 450.84 L 756.25 451.42 C759.69,451.74 763.85,452.11 765.49,452.25 C767.42,452.41 768.60,453.12 768.81,454.25 C769.12,455.85 767.97,456.00 755.74,456.00 C748.37,456.00 742.03,455.70 741.67,455.33 ZM 712.53 453.75 C712.25,452.51 711.90,443.07 711.76,432.76 C711.55,417.89 711.78,413.91 712.83,413.51 C713.56,413.23 719.08,413.00 725.08,413.00 L 736.00 413.00 L 736.00 415.50 C736.00,417.96 735.87,418.00 728.00,418.00 L 720.00 418.00 L 720.00 431.00 L 724.75 431.01 C731.87,431.03 734.01,431.84 733.63,434.36 C733.34,436.26 732.57,436.53 726.65,436.80 L 720.00 437.09 L 720.00 456.00 L 716.52 456.00 C713.73,456.00 712.94,455.56 712.53,453.75 ZM 529.26 431.19 C531.91,428.54 532.13,422.70 529.67,420.24 C528.41,418.98 526.28,418.52 521.72,418.51 L 515.50 418.50 L 515.20 424.89 C514.77,434.02 514.99,434.33 521.58,433.79 C525.47,433.46 527.75,432.69 529.26,431.19 ZM 488.55 430.55 C491.60,427.49 491.71,423.38 488.83,420.31 C487.04,418.41 485.62,418.00 480.83,418.00 L 475.00 418.00 L 475.00 433.00 L 480.55 433.00 C485.10,433.00 486.53,432.56 488.55,430.55 ZM 306.00 423.00 L 292.00 423.00 L 292.00 438.00 L 306.00 438.00 L 306.00 423.00 ZM 296.04 469.80 C293.73,467.49 290.96,463.88 289.89,461.78 C288.15,458.36 288.11,457.90 289.53,457.35 C291.20,456.71 301.64,457.66 303.14,458.58 C305.17,459.84 303.66,474.00 301.49,474.00 C300.80,474.00 298.35,472.11 296.04,469.80 ZM 689.60 435.73 C690.12,435.21 683.57,417.01 682.86,417.01 C682.50,417.00 680.68,421.16 678.81,426.25 C675.48,435.31 675.45,435.51 677.46,436.21 C679.34,436.86 688.85,436.49 689.60,435.73 ZM 753.00 408.62 C753.00,406.51 755.61,404.82 759.12,404.65 C763.29,404.45 763.74,406.13 760.11,408.28 C756.60,410.35 753.00,410.52 753.00,408.62 ZM 317.00 384.36 C316.57,384.22 316.11,384.05 315.64,383.87 C316.17,383.86 316.68,383.68 317.42,383.39 C318.76,382.88 318.61,382.33 316.44,379.74 C314.44,377.37 312.23,373.59 310.34,369.50 C312.46,374.01 315.06,378.16 317.65,381.03 C320.96,384.70 320.79,385.58 317.00,384.36 ZM 305.68 378.35 C305.47,378.16 305.31,377.98 305.19,377.82 C304.47,376.82 303.29,376.00 302.56,376.00 C303.29,376.00 304.47,376.81 305.19,377.80 C305.31,377.96 305.48,378.15 305.68,378.35 Z" fill="rgba(15,32,59,1)"/>
<path d="M 310.50 381.73 C308.30,380.56 305.91,378.79 305.19,377.80 C304.47,376.81 303.29,376.00 302.56,376.00 C300.89,376.00 294.93,368.77 292.24,363.47 C283.75,346.81 284.77,324.25 294.77,307.50 C299.27,299.95 302.48,295.75 312.23,284.62 C327.52,267.18 332.60,257.23 332.97,243.41 C332.68,254.96 329.37,263.08 320.36,274.89 C316.43,280.03 316.23,281.76 319.14,285.45 C320.32,286.95 321.33,289.13 321.39,290.31 C321.50,292.49 325.10,294.96 328.19,294.99 C329.51,295.00 335.87,288.48 341.34,281.88 C339.04,284.72 336.42,287.71 333.38,291.00 C320.87,304.49 315.49,313.18 312.49,324.70 C310.55,332.15 310.59,345.63 312.57,353.28 C314.18,359.47 318.68,369.27 322.24,374.31 C325.32,378.68 323.44,378.74 319.34,374.40 C311.56,366.15 307.49,352.54 308.30,337.51 C308.60,332.00 309.14,326.38 309.49,325.00 C310.09,322.67 310.05,322.63 308.88,324.50 C305.05,330.58 303.85,348.76 306.57,359.28 C308.39,366.31 312.77,375.38 316.44,379.74 C318.61,382.33 318.76,382.88 317.42,383.39 C315.27,384.22 315.07,384.17 310.50,381.73 ZM 521.00 488.00 C521.00,487.45 523.36,487.00 526.25,486.99 C529.14,486.98 546.58,486.32 565.00,485.52 C596.59,484.15 613.59,483.23 678.50,479.39 C688.87,478.78 707.28,478.13 725.43,477.70 C727.97,478.38 729.76,480.23 729.27,481.68 C729.13,482.10 729.31,482.39 729.72,482.50 C710.69,482.92 692.75,483.52 672.27,484.37 C672.71,484.31 673.12,484.24 673.50,484.17 L 677.50 483.47 L 675.03 481.73 C672.34,479.85 668.00,479.40 668.00,481.00 C668.00,481.55 667.44,482.01 666.75,482.03 C666.06,482.05 664.63,482.72 663.56,483.53 C662.63,484.23 662.22,484.60 662.52,484.78 C661.03,484.85 659.52,484.91 658.00,484.98 C576.78,488.57 521.00,489.79 521.00,488.00 ZM 845.16 477.75 C892.96,478.31 941.99,479.19 958.50,479.96 C975.90,480.77 954.08,481.02 822.50,481.50 C783.97,481.65 756.30,481.91 730.72,482.47 C733.38,482.02 804.47,481.03 838.50,480.98 C859.54,480.94 863.22,480.73 861.75,479.60 C860.77,478.86 853.62,478.19 845.16,477.75 ZM 334.52 323.04 C335.48,324.58 338.27,324.14 341.50,321.94 C342.51,321.25 344.58,320.04 346.91,318.75 C338.43,323.76 331.49,330.63 327.54,338.00 C323.13,346.24 322.74,361.16 326.67,371.62 C327.29,373.28 327.18,373.34 325.69,372.13 C321.03,368.34 319.56,350.83 322.98,339.86 C325.16,332.84 328.32,327.76 334.58,322.52 C334.46,322.73 334.44,322.91 334.52,323.04 ZM 334.05 368.25 C332.02,360.95 332.74,353.06 336.07,346.00 C339.98,337.70 345.97,332.06 358.23,325.13 C352.09,328.61 349.33,330.70 349.68,331.62 C350.46,333.63 352.10,333.37 359.09,329.48 C349.93,335.27 341.14,343.92 337.95,350.50 C335.97,354.59 335.54,357.00 335.57,363.75 C335.60,368.29 335.50,372.00 335.36,372.00 C335.21,372.00 334.63,370.31 334.05,368.25 ZM 722.00 391.22 C722.00,390.72 724.86,386.95 728.36,382.85 C735.05,375.01 744.07,369.05 747.33,370.30 C749.64,371.18 749.58,374.06 747.56,377.13 C747.73,376.46 747.74,375.74 747.52,375.05 C746.67,372.37 745.68,372.44 738.38,375.74 C734.02,377.71 731.98,379.26 731.25,381.17 C730.60,382.88 730.58,384.18 731.20,384.80 C732.52,386.12 735.88,385.14 739.59,382.34 C741.30,381.05 743.38,380.00 744.22,380.00 C744.62,380.00 745.00,379.92 745.35,379.78 C745.30,379.83 745.24,379.88 745.19,379.94 C740.04,384.83 722.00,393.61 722.00,391.22 ZM 1017.15 442.44 L 1016.91 448.00 L 1020.81 448.00 C1022.95,448.00 1027.47,448.29 1030.85,448.64 C1035.95,449.17 1037.00,449.60 1037.00,451.14 C1037.00,452.86 1035.99,453.00 1023.47,453.00 C1013.43,453.00 1009.85,452.68 1009.45,451.73 L 1012.16 450.95 C1013.92,450.45 1015.71,449.69 1016.13,449.27 C1016.52,448.88 1016.96,445.90 1017.15,442.44 ZM 357.59 292.73 C354.20,295.36 348.63,298.87 344.45,300.97 C330.95,307.75 324.06,314.86 319.97,326.22 L 318.07 331.50 L 318.05 327.00 C318.01,320.89 321.81,313.11 327.48,307.67 C328.27,306.91 329.46,305.96 330.89,304.92 C330.49,305.48 330.51,305.91 330.86,306.26 C332.30,307.70 349.89,298.68 357.59,292.73 ZM 690.73 482.27 C699.21,483.16 702.95,482.91 708.58,481.09 C711.84,480.04 715.40,478.97 716.50,478.71 C719.70,477.95 701.32,478.13 692.00,478.94 C687.33,479.35 684.54,479.76 685.81,479.85 C687.08,479.93 687.86,480.42 687.54,480.94 C687.22,481.45 688.66,482.05 690.73,482.27 ZM 308.73 375.51 C301.31,368.26 297.59,362.71 294.98,354.92 C292.25,346.82 291.56,346.15 292.44,352.50 C293.87,362.65 299.35,371.45 308.40,378.12 C314.65,382.73 314.82,381.45 308.73,375.51 ZM 943.22 443.16 C944.76,444.13 944.88,444.14 947.78,443.36 C949.17,442.99 949.71,442.79 949.85,439.25 L 950.04 453.00 L 941.96 453.00 L 942.18 436.86 C942.27,441.03 942.59,442.76 943.22,443.16 ZM 736.66 477.46 C740.63,477.39 744.49,477.33 748.16,477.28 C762.58,477.11 788.72,477.21 817.97,477.47 C816.45,477.58 815.33,477.72 814.75,477.92 C810.85,479.21 808.41,479.26 788.50,478.50 C773.90,477.95 750.51,477.52 736.66,477.46 ZM 912.39 453.28 C911.99,453.00 910.64,450.14 908.88,446.08 C910.26,449.11 911.23,450.98 911.50,450.99 C912.05,451.02 914.61,450.01 917.19,448.77 C921.24,446.81 922.19,445.74 924.10,441.00 C925.17,438.35 927.36,433.02 929.27,428.41 C927.25,433.31 924.60,439.89 922.99,444.00 C921.16,448.67 919.60,452.61 919.51,452.74 C919.01,453.50 913.32,453.93 912.39,453.28 ZM 788.10 453.12 C784.31,452.43 781.90,449.70 783.59,448.01 C784.31,447.29 785.57,447.30 787.69,448.04 C788.46,448.31 789.72,448.53 791.17,448.67 C788.56,448.81 786.59,449.08 786.30,449.37 C785.01,450.66 788.34,451.97 793.00,452.00 C795.47,452.02 798.17,452.46 799.00,452.99 C799.45,453.28 800.05,453.49 800.64,453.58 C797.06,454.10 792.82,453.98 788.10,453.12 ZM 886.26 453.20 C885.43,453.08 883.83,451.83 881.86,449.83 C884.55,452.36 886.14,452.35 888.35,450.73 C888.83,450.39 889.20,450.17 889.34,449.85 C889.69,449.04 888.53,447.57 883.59,441.65 C884.80,443.09 886.31,444.87 887.80,446.63 C892.65,452.36 892.85,452.79 890.75,453.15 C889.51,453.36 887.49,453.39 886.26,453.20 ZM 972.76 453.45 C972.51,453.19 973.01,452.19 973.98,450.88 L 976.21 452.44 C977.27,453.18 978.49,453.54 979.94,453.53 C979.51,453.59 979.07,453.64 978.62,453.69 C975.81,453.97 973.17,453.87 972.76,453.45 ZM 364.76 275.73 C364.88,274.67 364.88,273.60 364.75,272.51 C364.50,270.23 363.56,267.05 362.68,265.44 C364.59,268.92 365.28,272.36 364.76,275.73 ZM 896.62 414.22 C896.58,414.01 896.58,413.88 896.61,413.83 C896.89,413.37 898.43,413.00 900.03,413.00 C900.93,413.00 901.62,413.03 902.26,413.39 C901.54,413.02 900.76,413.09 899.69,413.19 C898.23,413.33 896.99,413.76 896.62,414.22 ZM 997.11 443.89 C994.20,447.47 990.33,450.31 985.76,452.03 C986.50,451.71 987.29,451.34 988.12,450.93 C991.73,449.10 994.75,446.70 997.11,443.89 ZM 370.24 301.94 C368.71,304.31 366.49,306.65 363.62,308.80 C363.24,309.09 362.80,309.41 362.32,309.74 C365.83,307.14 368.49,304.53 370.24,301.94 ZM 345.70 295.93 C349.95,293.50 353.44,291.15 356.23,288.83 C353.41,291.24 349.90,293.61 345.70,295.93 ZM 974.57 450.12 C975.09,449.46 975.69,448.76 976.36,448.05 C977.60,446.72 978.60,445.48 979.49,444.09 C978.79,445.25 978.07,446.23 977.33,447.06 L 974.57 450.12 ZM 379.38 314.20 C376.76,317.99 373.08,321.14 366.99,324.86 C373.20,320.98 376.82,317.88 379.38,314.20 ZM 812.87 443.79 C812.50,446.19 811.39,448.21 809.64,449.80 C809.90,449.52 810.17,449.21 810.46,448.87 C811.80,447.27 812.58,445.65 812.87,443.79 ZM 876.14 443.24 C872.28,438.64 871.21,437.99 868.89,438.17 C871.29,437.98 872.32,438.61 876.14,443.24 ZM 1009.23 432.69 L 1009.18 436.46 C1009.19,435.01 1009.20,433.50 1009.23,431.97 L 1009.50 413.50 ZM 368.82 286.66 C371.03,288.38 372.28,290.54 372.64,292.92 C372.63,292.86 372.62,292.80 372.61,292.73 C372.16,290.36 370.85,288.24 368.82,286.66 ZM 362.68 265.43 C361.79,263.82 360.20,260.76 359.14,258.63 L 357.21 254.76 L 355.57 258.22 L 357.19 254.71 L 359.13 258.61 C360.20,260.75 361.79,263.82 362.68,265.43 ZM 358.97 324.71 C366.26,320.58 371.01,317.30 374.22,313.97 C371.00,317.31 366.24,320.60 358.97,324.71 ZM 332.99 241.57 C332.98,237.37 332.50,233.78 331.41,230.48 C332.50,233.79 332.99,237.38 332.99,241.57 ZM 802.24 447.78 C802.70,447.53 803.09,447.22 803.46,446.83 C803.09,447.24 802.71,447.55 802.24,447.78 Z" fill="rgba(205,79,24,1)"/>
<path d="M 663.56 483.53 C664.63,482.72 666.06,482.05 666.75,482.03 C667.44,482.01 668.00,481.55 668.00,481.00 C668.00,479.40 672.34,479.85 675.03,481.73 L 677.50 483.47 L 673.50 484.17 C671.30,484.57 667.73,484.91 665.56,484.94 C661.88,485.00 661.75,484.90 663.56,483.53 ZM 690.73 482.27 C688.66,482.05 687.22,481.45 687.54,480.94 C687.86,480.42 687.08,479.93 685.81,479.85 C684.54,479.76 687.33,479.35 692.00,478.94 C701.32,478.13 719.70,477.95 716.50,478.71 C715.40,478.97 711.84,480.04 708.58,481.09 C702.95,482.91 699.21,483.16 690.73,482.27 ZM 729.27 481.68 C729.76,480.23 727.97,478.38 725.43,477.70 C723.22,477.11 766.16,477.66 788.50,478.50 C808.41,479.26 810.85,479.21 814.75,477.92 C819.50,476.35 859.34,477.78 861.75,479.60 C863.22,480.73 859.54,480.94 838.50,480.98 C804.36,481.03 732.91,482.03 730.69,482.48 C729.65,482.69 729.05,482.35 729.27,481.68 ZM 799.00 452.99 C798.17,452.46 795.47,452.02 793.00,452.00 C788.34,451.97 785.01,450.66 786.30,449.37 C786.71,448.96 790.47,448.60 794.65,448.56 C801.63,448.51 802.43,448.28 804.19,445.93 C807.40,441.65 805.22,438.69 796.10,434.94 C786.25,430.89 783.50,428.26 783.64,423.00 C783.76,418.20 785.22,416.27 790.50,413.86 C797.65,410.61 810.00,412.03 810.00,416.10 C810.00,418.31 809.40,418.38 803.51,416.90 C798.25,415.57 792.57,417.06 790.89,420.20 C789.14,423.48 792.47,426.86 800.32,429.76 C809.06,432.99 813.00,436.79 813.00,442.00 C813.00,444.66 812.22,446.78 810.46,448.87 C808.16,451.60 807.04,452.22 802.00,453.56 C801.17,453.78 799.83,453.52 799.00,452.99 ZM 976.21 452.44 L 973.92 450.83 L 977.33 447.06 C979.67,444.47 981.73,440.31 983.88,433.86 C987.48,423.07 990.75,417.70 995.10,415.45 C998.84,413.51 1000.51,414.59 1001.98,419.86 C1005.53,432.64 1000.07,444.88 988.12,450.93 C982.42,453.81 978.82,454.27 976.21,452.44 ZM 822.45 451.72 C822.17,451.01 822.08,442.13 822.23,431.97 L 822.50 413.50 L 835.00 413.50 C846.83,413.50 847.50,413.61 847.50,415.50 C847.50,417.33 846.81,417.51 839.50,417.57 C828.08,417.68 828.86,417.21 829.20,423.75 L 829.50 429.50 L 837.25 429.79 C844.18,430.05 845.00,430.29 845.00,432.04 C845.00,433.60 844.31,434.00 841.64,434.00 C839.79,434.00 836.19,434.29 833.64,434.64 L 829.00 435.27 L 829.00 441.52 C829.00,448.89 829.12,448.96 841.25,448.99 C848.33,449.00 849.00,449.17 849.00,451.00 C849.00,452.90 848.33,453.00 835.97,453.00 C826.29,453.00 822.81,452.67 822.45,451.72 ZM 858.23 433.25 L 858.50 413.50 L 866.50 413.19 C877.30,412.77 882.44,413.66 885.87,416.54 C891.56,421.33 890.60,430.25 883.93,434.67 C880.47,436.95 880.13,437.50 881.29,438.90 C890.55,449.99 890.19,449.39 888.35,450.73 C885.16,453.06 883.26,452.05 877.52,444.94 C872.39,438.59 871.51,437.92 868.66,438.19 L 865.50 438.50 L 865.21 445.75 L 864.91 453.00 L 861.44 453.00 L 857.96 453.00 L 858.23 433.25 ZM 876.87 432.89 C880.64,431.58 882.00,429.38 882.00,424.62 C882.00,419.72 879.22,418.00 871.28,418.00 L 865.00 418.00 L 865.00 425.44 L 865.00 432.88 L 868.75 433.27 C870.81,433.49 872.77,433.74 873.10,433.83 C873.43,433.92 875.13,433.50 876.87,432.89 ZM 963.15 449.47 C951.20,439.42 957.73,417.31 974.50,411.04 C980.73,408.72 989.66,408.59 993.56,410.77 C995.09,411.63 994.84,411.98 991.66,413.49 C984.03,417.11 980.73,422.03 976.49,436.14 C974.37,443.21 969.41,452.00 967.56,452.00 C966.78,452.00 964.80,450.86 963.15,449.47 ZM 1009.23 432.69 L 1009.50 413.50 L 1022.27 413.22 C1033.32,412.98 1035.12,413.16 1035.67,414.57 C1036.65,417.15 1034.14,417.97 1025.20,417.98 L 1016.90 418.00 L 1017.20 423.75 L 1017.50 429.50 L 1025.25 429.79 C1032.12,430.05 1033.00,430.30 1033.00,432.00 C1033.00,433.70 1032.12,433.95 1025.25,434.21 L 1017.50 434.50 L 1017.20 441.50 C1017.03,445.35 1016.55,448.85 1016.13,449.27 C1015.71,449.69 1013.92,450.45 1012.16,450.95 L 1008.96 451.87 L 1009.23 432.69 ZM 903.50 433.23 C899.65,423.48 896.50,415.05 896.50,414.50 C896.50,413.95 897.94,413.36 899.69,413.19 C903.53,412.82 903.60,412.94 910.58,431.74 C913.29,439.02 915.75,444.98 916.05,444.99 C916.35,445.00 919.22,437.80 922.44,429.00 L 928.28 413.00 L 931.71 413.00 C935.75,413.00 935.78,412.72 930.06,426.50 C928.00,431.45 925.32,437.98 924.10,441.00 C922.19,445.74 921.24,446.81 917.19,448.77 C914.61,450.01 912.05,451.02 911.50,450.99 C910.95,450.97 907.35,442.98 903.50,433.23 ZM 943.22 443.16 C942.26,442.55 942.01,438.79 942.22,427.92 L 942.50 413.50 L 946.00 413.50 L 949.50 413.50 L 949.78 428.13 C950.05,442.61 950.03,442.76 947.78,443.36 C944.88,444.14 944.76,444.13 943.22,443.16 ZM 731.20 384.80 C730.58,384.18 730.60,382.88 731.25,381.17 C731.98,379.26 734.02,377.71 738.38,375.74 C745.68,372.44 746.67,372.37 747.52,375.05 C748.25,377.37 746.51,380.00 744.22,380.00 C743.38,380.00 741.30,381.05 739.59,382.34 C735.88,385.14 732.52,386.12 731.20,384.80 ZM 349.68 331.62 C349.32,330.68 352.23,328.51 358.69,324.87 C370.98,317.95 376.17,313.37 378.90,307.00 C380.83,302.52 380.97,301.27 380.05,296.33 C379.48,293.25 378.50,290.10 377.87,289.34 C377.23,288.58 376.97,287.70 377.28,287.38 C377.59,287.07 379.08,288.67 380.57,290.93 C384.64,297.08 384.96,303.52 381.54,310.50 C378.34,317.04 373.69,321.15 361.74,327.99 C352.50,333.27 350.54,333.86 349.68,331.62 ZM 334.52 323.04 C333.86,321.96 340.14,317.73 353.00,310.59 C366.71,302.98 371.65,295.82 367.96,288.93 C366.43,286.06 364.99,286.51 358.66,291.87 C351.69,297.76 332.37,307.77 330.86,306.26 C329.60,305.00 332.56,302.87 343.88,296.91 C362.46,287.14 368.77,276.56 362.68,265.44 C361.79,263.82 360.20,260.75 359.13,258.61 L 357.19 254.71 L 353.70 262.28 C351.77,266.44 348.72,272.01 346.90,274.64 C341.46,282.55 330.01,295.00 328.19,294.99 C325.10,294.96 321.50,292.49 321.39,290.31 C321.33,289.13 320.32,286.95 319.14,285.45 C316.23,281.76 316.43,280.03 320.36,274.89 C329.84,262.47 333.01,254.13 332.99,241.57 C332.98,231.47 330.18,224.83 322.73,217.25 C316.94,211.36 317.41,210.60 324.19,214.91 C329.25,218.11 333.99,224.34 336.06,230.50 C338.03,236.33 339.35,237.27 338.74,232.39 C337.65,223.61 331.38,215.52 322.50,211.42 L 317.50 209.12 L 321.63 209.06 C324.04,209.02 326.25,209.59 326.94,210.42 C328.12,211.85 334.00,214.33 334.00,213.40 C334.00,213.13 332.54,212.23 330.75,211.40 L 327.50 209.90 L 330.50 210.49 C343.81,213.12 350.96,218.04 355.62,227.79 C357.95,232.66 358.46,235.35 359.07,246.00 C359.47,252.88 359.84,258.59 359.89,258.69 C359.95,258.79 361.80,260.96 364.00,263.50 C367.47,267.51 368.00,268.76 368.00,272.91 C368.00,275.55 367.49,279.17 366.86,280.97 C365.79,284.03 365.92,284.38 368.82,286.66 C370.85,288.24 372.16,290.36 372.61,292.73 C374.03,300.32 366.65,308.55 351.43,316.34 C347.62,318.30 343.15,320.82 341.50,321.94 C338.27,324.14 335.48,324.58 334.52,323.04 ZM 353.56 231.57 C351.66,225.01 346.92,218.58 341.50,215.18 C337.53,212.69 337.55,212.72 343.17,218.80 C348.31,224.37 353.00,233.23 353.00,237.37 C353.00,238.08 353.34,239.01 353.75,239.42 C355.22,240.90 355.12,236.93 353.56,231.57 Z" fill="rgba(223,164,46,1)"/>
</g>
</svg>